<?xml version="1.0" standalone="no"?><!DOCTYPE svg PUBLIC "-//W3C//DTD SVG 1.1//EN" "http://www.w3.org/Graphics/SVG/1.1/DTD/svg11.dtd"><svg class="icon" width="200px" height="169.96px" viewBox="0 0 1205 1024" version="1.1" xmlns="http://www.w3.org/2000/svg"><path d="M605.573957 234.305865C463.046606 234.305865 347.954097 349.398374 347.954097 491.925725S463.046606 749.545585 605.573957 749.545585c86.988524 0 168.623908-44.163405 216.133026-117.099936 2.67657 0 4.683997 0.669142 7.360567 0.669142 36.802837 1.338285 67.583392-28.103985 68.921677-64.906822 0.669142-24.758272-12.713707-48.17826-34.79541-60.222824 0-5.35314 0.669142-10.037137 0.669143-15.390277C863.193817 349.398374 748.101308 234.305865 605.573957 234.305865z m0 475.091171C485.797451 709.397036 388.102646 611.702232 388.102646 491.925725S485.797451 274.454415 605.573957 274.454415 823.045267 372.149219 823.045267 491.925725v6.691425c-34.79541 2.67657-61.561109 32.11884-62.230251 66.91425 0 19.405132 8.698852 38.141122 23.419987 50.854829-40.817692 58.215397-107.731942 93.010807-178.661046 93.010807z" fill="#ff5722" /><path d="M483.790023 493.26401a127.137074 126.467931 0 1 0 254.274148 0 127.137074 126.467931 0 1 0-254.274148 0Z" fill="#ff5722" /><path d="M160.594199 65.681957c10.037137 3.345712 19.405132 8.02971 28.103984 14.721134 6.691425 8.02971 12.044565 18.066847 15.390278 28.103985 2.007427 5.35314 8.02971 7.360567 13.38285 5.35314 2.67657-1.338285 4.014855-2.67657 5.353139-5.35314 3.345712-9.367995 8.02971-18.066847 14.051993-26.096557 9.367995-7.360567 19.405132-12.713707 30.780555-16.05942 4.683997-1.338285 7.360567-6.691425 6.022282-12.044565-0.669142-2.67657-3.345712-4.683997-6.022282-6.022282-10.70628-3.345712-20.743417-8.02971-30.111413-14.721135-6.691425-8.02971-11.375422-16.728562-14.721135-26.7657-2.007427-5.35314-8.02971-7.360567-13.382849-5.35314-2.007427 1.338285-4.014855 3.345712-5.35314 5.35314-3.345712 10.037137-8.698852 18.73599-15.390278 26.7657C180.668473 40.254542 170.631336 44.938539 160.594199 48.284252c-4.683997 1.338285-7.360567 6.691425-6.022283 12.044565 1.338285 2.67657 3.345712 4.683997 6.022283 5.35314zM1196.426779 691.330188c-15.390277-5.35314-31.449697-12.713707-38.810265-19.405132-8.698852-10.037137-14.721135-22.081702-18.735989-34.79541-2.67657-6.691425-10.037137-9.367995-16.728563-6.691425-3.345712 1.338285-5.35314 4.014855-6.691425 6.691425-4.014855 12.713707-10.70628 24.758272-19.405132 35.464553-6.691425 6.691425-22.081702 13.38285-36.802837 18.735989-6.022282 2.007427-9.367995 9.367995-7.360568 15.390278 1.338285 3.345712 4.014855 6.022282 7.360568 7.360567 13.38285 4.014855 25.427415 10.037137 36.133695 18.73599 8.698852 10.70628 15.390277 22.750845 20.074274 36.133695 2.67657 6.691425 10.037137 9.367995 16.728563 6.691425 3.345712-1.338285 5.35314-4.014855 6.691425-6.691425 4.014855-12.044565 10.037137-23.419987 18.066847-33.457125 7.360567-7.360567 24.08913-14.721135 39.479407-20.074275 6.691425-1.338285 10.70628-8.02971 8.698853-14.721135-0.669142-4.683997-4.014855-8.02971-8.698853-9.367995zM969.587474 218.915588c9.367995 2.67657 17.397705 6.691425 25.427414 12.713707 6.022282 7.360567 10.70628 15.390277 14.051993 24.758272 2.007427 4.683997 7.360567 6.691425 12.044565 4.683998 2.007427-0.669142 3.345712-2.67657 4.683997-4.683998 2.67657-8.02971 6.691425-16.05942 12.713708-22.750844 8.698852-6.022282 17.397705-10.70628 27.434842-14.051993 4.014855-1.338285 6.691425-6.022282 5.35314-10.037137-0.669142-2.67657-2.67657-4.683997-5.35314-5.35314-9.367995-2.67657-18.73599-7.360567-26.7657-13.38285-6.022282-6.691425-10.70628-15.390277-13.38285-23.419987-2.007427-4.683997-7.360567-6.691425-12.044565-4.683998-2.007427 0.669142-3.345712 2.67657-4.683997 4.683998-2.67657 8.698852-7.360567 16.728562-13.38285 24.089129-8.02971 6.022282-16.728562 10.037137-26.096557 12.713708-4.014855 1.338285-6.691425 6.022282-4.683998 10.70628 0 1.338285 2.007427 3.345712 4.683998 4.014855zM255.612433 772.29643c-9.367995-2.67657-18.73599-7.360567-26.7657-13.38285-6.022282-6.691425-10.70628-15.390277-13.38285-24.08913-2.007427-4.683997-7.360567-6.691425-12.044565-4.683997-2.007427 0.669142-4.014855 2.67657-4.683997 4.683997-2.67657 8.698852-7.360567 16.728562-13.38285 24.08913-8.02971 6.022282-16.728562 10.037137-26.096557 12.713708-4.014855 1.338285-6.691425 6.022282-5.35314 10.037137 0.669142 2.67657 2.67657 4.683997 5.35314 5.35314 9.367995 2.67657 17.397705 6.691425 25.427414 12.713707 6.022282 7.360567 10.70628 15.390277 14.051993 24.758273 2.007427 4.683997 7.360567 6.691425 11.375422 4.683997 2.007427-0.669142 4.014855-2.67657 4.683998-4.683997 2.67657-8.698852 6.691425-16.05942 12.713707-22.750845 8.02971-6.022282 17.397705-10.70628 27.434842-14.051993 4.014855-1.338285 6.691425-6.022282 5.35314-10.037137-0.669142-2.67657-2.67657-4.683997-4.683997-5.35314zM153.902774 455.122888c0 7.360567 6.022282 13.38285 13.382849 13.38285s13.38285-6.022282 13.38285-13.38285-6.022282-13.38285-13.38285-13.38285-13.38285 6.022282-13.382849 13.38285zM86.988524 863.299809c-14.721135 0-26.7657 12.044565-26.7657 26.7657s12.044565 26.7657 26.7657 26.7657 26.7657-12.044565 26.7657-26.7657-12.044565-26.7657-26.7657-26.7657zM1144.233665 348.060089c11.375422 0 20.074275-8.698852 20.074274-20.074275s-8.698852-20.074275-20.074274-20.074275-20.074275 8.698852-20.074275 20.074275 8.698852 20.074275 20.074275 20.074275zM920.070929 869.991234c-9.367995 0-16.728562 7.360567-16.728562 16.728563s7.360567 16.728562 16.728562 16.728562 16.728562-7.360567 16.728562-16.728562-7.360567-16.728562-16.728562-16.728563zM862.524675 57.652247c9.367995 2.67657 17.397705 6.691425 25.427414 12.713707 6.022282 7.360567 10.70628 15.390277 14.051993 24.758272 2.007427 4.683997 7.360567 6.691425 12.044565 4.683998 2.007427-0.669142 3.345712-2.67657 4.683997-4.683998 2.67657-8.698852 6.691425-16.05942 12.713708-22.750844 8.02971-6.022282 17.397705-10.70628 27.434842-14.051993 4.014855-1.338285 6.691425-6.022282 5.35314-10.037137-0.669142-2.67657-2.67657-4.683997-5.35314-5.35314-9.367995-2.67657-18.73599-7.360567-26.7657-13.38285-6.022282-7.360567-10.70628-15.390277-13.38285-24.08913-2.007427-4.683997-7.360567-6.691425-12.044565-4.683997-2.007427 0.669142-3.345712 2.67657-4.683997 4.683997-2.67657 8.698852-7.360567 16.728562-13.38285 24.08913-8.02971 6.022282-16.728562 10.037137-26.096557 12.713707-4.014855 1.338285-6.691425 6.022282-5.35314 10.037138 0.669142 2.67657 2.67657 4.683997 5.35314 5.35314zM428.251196 903.448359c-11.375422 0-20.074275 8.698852-20.074275 20.074275s8.698852 20.074275 20.074275 20.074275 20.074275-8.698852 20.074275-20.074275-8.698852-20.074275-20.074275-20.074275zM194.051323 321.294389c-7.360567 0-13.38285 6.022282-13.38285 13.38285s6.022282 13.38285 13.38285 13.38285 13.38285-6.022282 13.38285-13.38285-6.022282-13.38285-13.38285-13.38285zM669.142494 46.945967c11.375422 0 20.074275-8.698852 20.074275-20.074275s-8.698852-20.074275-20.074275-20.074275-20.074275 8.698852-20.074275 20.074275 8.698852 20.074275 20.074275 20.074275zM1071.297133 966.347753c-9.367995-2.67657-18.73599-7.360567-26.7657-13.38285-6.022282-6.691425-10.70628-15.390277-13.38285-24.089129-2.007427-4.683997-7.360567-6.691425-12.044565-4.683998-2.007427 0.669142-3.345712 2.67657-4.683997 4.683998-2.67657 8.698852-7.360567 16.728562-13.38285 24.089129-8.02971 6.022282-16.728562 10.037137-26.096557 12.713708-4.014855 1.338285-6.691425 6.022282-5.35314 10.037137 0.669142 2.67657 2.67657 4.683997 5.35314 5.35314 9.367995 2.67657 17.397705 6.691425 25.427414 12.713708 6.022282 7.360567 10.70628 15.390277 14.051993 24.758272 2.007427 4.683997 7.360567 6.691425 12.044565 4.683997 2.007427-0.669142 3.345712-2.67657 4.683997-4.683997 2.67657-8.02971 7.360567-16.05942 12.713707-22.750845 8.698852-6.022282 17.397705-10.70628 27.434843-14.051992 4.014855-1.338285 6.691425-6.022282 5.35314-10.037138 0-2.67657-2.007427-4.683997-5.35314-5.35314zM113.754224 570.215397c-10.70628-3.345712-20.743417-8.02971-30.111412-14.721135-6.691425-8.02971-11.375422-16.728562-14.721135-26.7657-2.007427-5.35314-8.02971-7.360567-13.38285-5.35314-2.007427 1.338285-4.014855 3.345712-5.35314 5.35314-3.345712 10.037137-8.698852 18.73599-15.390277 26.7657C26.7657 562.185687 16.728562 566.869684 6.691425 570.215397c-4.683997 1.338285-7.360567 6.691425-6.022283 12.044565 0.669142 2.67657 3.345712 4.683997 6.022283 6.022282 10.037137 2.67657 19.405132 7.360567 28.103985 14.051993 6.691425 8.02971 12.044565 18.066847 15.390277 28.103984 2.007427 5.35314 8.02971 7.360567 13.38285 5.35314 2.67657-1.338285 4.014855-2.67657 5.35314-5.35314 3.345712-9.367995 8.02971-18.066847 14.051992-26.096557 9.367995-7.360567 19.405132-12.713707 30.780555-16.05942 4.683997-1.338285 7.360567-6.691425 6.022282-12.044565-1.338285-2.67657-3.345712-4.683997-6.022282-6.022282zM521.931145 361.442939c11.375422 0 20.074275-8.698852 20.074275-20.074275s-8.698852-20.074275-20.074275-20.074275-20.074275 8.698852-20.074275 20.074275 8.698852 20.074275 20.074275 20.074275z" fill="#ff5722" /><path d="M1017.096591 491.925725c0-114.423366-48.847402-223.493593-134.497642-300.44498-11.375422-10.037137-28.103985-8.698852-38.141122 2.007428-10.037137 11.375422-8.698852 28.103985 2.007428 38.141122 143.865636 129.144501 156.579344 349.961524 27.434842 494.496303-49.516545 55.538827-115.092509 93.679949-187.359898 109.070227-16.728562-44.163405-66.914249-66.914249-111.077654-50.185687-22.750845 8.698852-40.817692 26.096557-49.516545 48.847402C367.359229 796.38556 254.94329 655.196494 254.274148 491.925725c0-91.003379 35.464552-177.991903 99.033089-243.567868 42.155977 21.41256 94.349092 4.683997 115.761651-37.471979 6.022282-12.044565 9.367995-24.758272 9.367995-38.141122v-6.691425C519.923718 149.324768 564.087122 140.625916 608.919669 140.625916c14.721135 0 26.7657-12.044565 26.7657-26.7657s-12.044565-26.7657-26.7657-26.7657c-52.193115 0-103.717087 10.037137-151.895346 29.44227-31.449697-35.464552-85.650239-38.810265-121.783934-8.02971-18.066847 16.05942-28.773127 39.479407-29.442269 64.23768 0 13.38285 3.345712 26.096557 9.367995 38.141122C242.229583 285.829837 200.742748 386.870354 200.742748 491.925725c0 194.051323 138.512496 356.652949 322.526682 396.132357 12.713707 45.50169 60.891967 72.267389 106.393657 59.553682 28.103985-8.02971 50.85483-30.111412 58.884539-58.215397 187.359898-37.47198 328.548965-201.411891 328.548965-397.470642z" fill="#ff5722" /><path d="M661.112784 116.536786c-2.67657 14.721135 6.022282 28.773127 20.743417 31.449697 32.11884 6.691425 62.899394 18.066847 92.341664 32.787983 4.014855 2.007427 8.02971 3.345712 12.044565 3.345712 14.721135 0 26.7657-12.044565 26.096558-27.434842 0-9.367995-5.35314-18.73599-14.051993-23.419988-33.457125-17.397705-68.921677-30.111412-105.724514-37.471979-14.051992-2.67657-28.103985 6.691425-31.449697 20.743417z" fill="#ff5722" /></svg>